<svg xmlns="http://www.w3.org/2000/svg" width="198.165" height="51.095" viewBox="0 0 198.165 51.095"><path fill="#D77D31" d="M65.752 35.522v-7.97h-7.3v7.97h-5.03V16.124h5.03v7.503h7.3v-7.503h5.033v19.398M90.328 26.215v9.307h-5.03v-9.307l-7.01-10.09h6.02l3.664 5.292 3.52-5.293H97.6M113.735 29.065h-3.14v6.457h-5.032V16.124h7.997c2.27 0 3.607.436 4.857 1.628 1.25 1.164 1.89 2.763 1.89 4.74.002 4.305-2.267 6.573-6.572 6.573m-1.453-8.9h-1.688v4.858h1.658c1.947 0 2.792-.756 2.792-2.473 0-1.57-.93-2.384-2.762-2.384M141.372 35.522v-7.97h-7.3v7.97h-5.032V16.124h5.033v7.503h7.3v-7.503h5.03v19.398M156.873 35.522V16.124h11.023V20.4h-5.99v3.227h5.67v4.275h-5.67v3.345h5.99v4.275M192.845 35.522l-9.278-11.866v11.866h-5.03V16.124h5.03l9.278 11.865V16.123h5.03v19.398"/><path fill="#F47621" d="M65.752 35.522v-7.97h-7.3v7.97h-5.03V16.124h5.03v7.503h7.3v-7.503h5.033v19.398M90.328 26.215v9.307h-5.03v-9.307l-7.01-10.09h6.02l3.664 5.292 3.52-5.293H97.6M113.735 29.065h-3.14v6.457h-5.032V16.124h7.997c2.27 0 3.607.436 4.857 1.628 1.25 1.164 1.89 2.763 1.89 4.74.002 4.305-2.267 6.573-6.572 6.573m-1.453-8.9h-1.688v4.858h1.658c1.947 0 2.792-.756 2.792-2.473 0-1.57-.93-2.384-2.762-2.384M141.372 35.522v-7.97h-7.3v7.97h-5.032V16.124h5.033v7.503h7.3v-7.503h5.03v19.398M156.873 35.522V16.124h11.023V20.4h-5.99v3.227h5.67v4.275h-5.67v3.345h5.99v4.275M192.845 35.522l-9.278-11.866v11.866h-5.03V16.124h5.03l9.278 11.865V16.123h5.03v19.398"/><path fill="#231F20" d="M58.098 39.83c.01.158.01.18-.085.244l-.255.147c-.032.013-.085.033-.106.033-.064 0-.297-.148-.35-.18-.542-.287-1.147-.33-1.497-.33-.14 0-1 0-1 .68 0 .414.383.563 1.488.998.913.362 2.07.83 2.07 2.146 0 .426-.16 1.476-1.57 1.944-.235.073-.734.233-1.678.233-.606 0-1.264-.086-1.912-.203-.106-.02-.16-.053-.17-.244l-.042-.764c-.01-.202-.02-.223.096-.276l.266-.138c.042-.02.095-.042.127-.042.01 0 .34.21.403.244.584.318 1.232.435 1.635.435.67 0 1.072-.266 1.072-.764s-.255-.646-1.964-1.316c-1.486-.584-1.55-1.412-1.55-1.87 0-.943.563-1.357.753-1.495.54-.362 1.157-.543 2.24-.543.828 0 1.402.096 1.795.17.127.02.127.053.158.275l.075.617zM76.828 39.894c.414.436.807 1.114.807 2.22 0 2.313-1.88 3.62-4.226 3.62-2.273 0-3.78-1.222-3.78-3.366 0-2.506 2.037-3.6 3.99-3.6.915 0 2.2.043 3.208 1.126m-3.313-.182c-1.285 0-1.826 1.062-1.826 2.326 0 1.604.784 2.75 2.048 2.75 1.02 0 1.837-.7 1.837-2.326 0-1.528-.637-2.75-2.06-2.75M91.256 38.884v5.66h3.165v1.072h-5.107v-6.732M107.5 38.884v3.76c0 .998 0 1.847 1.54 1.847 1.656 0 1.656-.816 1.656-2.303v-3.303h1.455l-.072 3.643c-.022.807-.054 2.08-1.253 2.718-.733.384-1.582.49-2.315.49-2.94 0-2.94-1.828-2.94-3.05v-3.8h1.93zM130.17 38.884v1.01h-2.526v5.722h-1.933v-5.722h-2.527v-1.01M141.318 38.885h1.943v6.73h-1.942zM162.14 39.894c.414.436.807 1.114.807 2.22 0 2.313-1.88 3.62-4.225 3.62-2.273 0-3.78-1.222-3.78-3.366 0-2.506 2.038-3.6 3.99-3.6.915 0 2.198.043 3.208 1.126m-3.314-.182c-1.285 0-1.826 1.062-1.826 2.326 0 1.604.786 2.75 2.05 2.75 1.02 0 1.836-.7 1.836-2.326 0-1.528-.637-2.75-2.06-2.75M176.187 38.884l3.694 4.13-.072-4.13h1.4l-.074 6.647-1.242.203-4.036-4.47.118 4.353h-1.402l.053-6.732M197.9 39.83c.01.158.01.18-.085.244l-.256.147c-.034.013-.087.033-.107.033-.063 0-.298-.148-.35-.18-.542-.287-1.147-.33-1.497-.33-.14 0-1 0-1 .68 0 .414.383.563 1.487.998.913.362 2.07.83 2.07 2.146 0 .426-.16 1.476-1.57 1.944-.235.073-.733.233-1.678.233-.606 0-1.265-.086-1.912-.203-.106-.02-.16-.053-.17-.244l-.042-.764c-.01-.202-.02-.223.096-.276l.267-.138c.04-.02.096-.042.127-.042.01 0 .34.21.404.244.584.318 1.23.435 1.635.435.667 0 1.07-.266 1.07-.764s-.255-.646-1.964-1.316c-1.486-.584-1.55-1.412-1.55-1.87 0-.943.563-1.357.754-1.495.54-.362 1.157-.543 2.24-.543.827 0 1.4.096 1.795.17.127.02.127.053.16.275l.074.617z"/><path fill="#F47621" d="M10.918 21.146V6.428L0 13.245V38.42l10.918 6.355V30.05h10.918v-8.904"/><path fill="#231F20" d="M32.755 44.776l10.918-6.355V13.245L32.755 6.427v14.72h-10.92v8.903h10.92"/><path fill="#231F20" d="M31.085 5.55L21.835 0v19.477h9.25"/><path fill="#F47621" d="M12.588 31.72v13.825l9.25 5.55V31.72"/><path fill="#231F20" d="M31.085 31.72h-9.25v19.375l9.25-5.55"/><path fill="#F47621" d="M12.588 5.55v13.927h9.25V0c-1.12.746-9.25 5.55-9.25 5.55"/><path fill="#231F20" d="M194.863 48.425v.27h-.805v1.778h-.452v-1.778h-.802v-.27M195.755 48.425l.71 1.472.754-1.472h.41l.074 2.048h-.433l-.048-1.448-.737 1.403-.207.032-.713-1.493-.023 1.506h-.33l.14-2.048"/></svg>